HIERARCHY
ROOT hip
{
	OFFSET 0.000000 0.000000 0.000000
	CHANNELS 6 Xposition Yposition Zposition Xrotation Zrotation Yrotation 
	JOINT abdomen
	{
		OFFSET 0.000000 3.422050 0.000000
		CHANNELS 3 Xrotation Zrotation Yrotation 
		JOINT chest
		{
			OFFSET 0.000000 8.486693 -0.684411
			CHANNELS 3 Xrotation Zrotation Yrotation 
			JOINT neck
			{
				OFFSET 0.000000 10.266162 -0.273764
				CHANNELS 3 Xrotation Zrotation Yrotation 
				JOINT head
				{
					OFFSET 0.000000 3.148285 0.000000
					CHANNELS 3 Xrotation Zrotation Yrotation 
					End Site
					{
						OFFSET 0.000000 3.148289 0.000000
					}
				}
			}
			JOINT lCollar
			{
				OFFSET 3.422053 6.707223 -0.821293
				CHANNELS 3 Yrotation Zrotation Xrotation 
				JOINT lShldr
				{
					OFFSET 3.285171 0.000000 0.000000
					CHANNELS 3 Zrotation Yrotation Xrotation 
					JOINT lForeArm
					{
						OFFSET 10.129278 0.000000 0.000000
						CHANNELS 3 Yrotation Zrotation Xrotation 
						JOINT lHand
						{
							OFFSET 8.486692 0.000000 0.000000
							CHANNELS 3 Zrotation Yrotation Xrotation 
							End Site
							{
								OFFSET 4.106464 0.000000 0.000000
							}
						}
					}
				}
			}
			JOINT rCollar
			{
				OFFSET -3.558935 6.707223 -0.821293
				CHANNELS 3 Yrotation Zrotation Xrotation 
				JOINT rShldr
				{
					OFFSET -3.148289 0.000000 0.000000
					CHANNELS 3 Zrotation Yrotation Xrotation 
					JOINT rForeArm
					{
						OFFSET -10.266159 0.000000 0.000000
						CHANNELS 3 Yrotation Zrotation Xrotation 
						JOINT rHand
						{
							OFFSET -8.349810 0.000000 0.000000
							CHANNELS 3 Zrotation Yrotation Xrotation 
							End Site
							{
								OFFSET -4.106464 0.000000 0.000000
							}
						}
					}
				}
			}
		}
	}
	JOINT lThigh
	{
		OFFSET 5.338403 -1.642589 1.368821
		CHANNELS 3 Xrotation Zrotation Yrotation 
		JOINT lShin
		{
			OFFSET -2.053232 -20.121670 0.000000
			CHANNELS 3 Xrotation Zrotation Yrotation 
			JOINT lFoot
			{
				OFFSET 0.000000 -19.300380 -1.231939
				CHANNELS 3 Xrotation Yrotation Zrotation 
				End Site
				{
					OFFSET 0.000000 -2.463878 4.653993
				}
			}
		}
	}
	JOINT rThigh
	{
		OFFSET -5.338403 -1.642589 1.368821
		CHANNELS 3 Xrotation Zrotation Yrotation 
		JOINT rShin
		{
			OFFSET 2.053232 -20.121670 0.000000
			CHANNELS 3 Xrotation Zrotation Yrotation 
			JOINT rFoot
			{
				OFFSET 0.000000 -19.300380 -1.231939
				CHANNELS 3 Xrotation Yrotation Zrotation 
				End Site
				{
					OFFSET 0.000000 -2.463878 4.653993
				}
			}
		}
	}
}
MOTION
Frames: 18
Frame Time: 0.049897
-8.803955 5.672377 -8.975166 90.005249 -7.114173 -90.008553 19.133221 25.447012 7.976120 19.581793 23.548904 5.946707 -16.518385 -3.392251 20.912365 -42.531136 -0.801757 8.709254 41.749386 4.995792 -0.235865 -16.998259 -25.786770 37.311920 -87.465843 44.403786 37.949142 17.528542 11.809549 1.085381 14.692377 0.568026 1.503331 34.661629 -45.345192 -55.543419 -52.145641 45.118690 17.804461 15.625783 -2.413582 -2.876604 -62.243828 2.689068 20.881495 61.245178 12.248018 -2.342284 19.528873 -4.787277 -4.228830 -91.598610 0.662580 28.267284 68.718758 44.769566 -10.414013 5.434778 14.563446 18.665619 
-8.803955 5.672377 -8.924103 90.004860 -6.738731 -90.008179 18.757750 25.447016 7.976099 19.355043 23.551640 6.448766 -16.406170 -3.265636 20.752937 -42.338203 -0.859616 8.530193 40.975231 4.821222 -0.194031 -16.998259 -25.786770 37.311920 -87.754425 44.392788 38.152485 17.528542 11.809549 1.085381 13.822171 1.588028 1.751747 34.566277 -45.143990 -55.534065 -50.829334 44.595448 16.865297 16.254377 -2.396697 -2.859571 -62.483994 2.717205 20.926170 61.046318 12.204734 -2.382040 19.542698 -4.795764 -4.217565 -91.812935 0.568585 28.145578 68.751282 44.774216 -10.391128 5.479962 14.723390 18.560431 
-8.803955 5.672377 -8.873038 90.004486 -6.363303 -90.007805 18.382290 25.447020 7.976077 19.128349 23.556198 6.950761 -16.294228 -3.138613 20.593655 -42.144890 -0.916932 8.350743 40.201542 4.646138 -0.154585 -16.998259 -25.786770 37.311920 -88.042892 44.381065 38.355705 17.528542 11.809549 1.085381 12.947467 2.603555 2.015648 34.471317 -44.942802 -55.525238 -49.538563 44.057861 15.952672 16.882898 -2.380003 -2.842357 -62.724102 2.745524 20.970718 60.847534 12.161317 -2.421638 19.556526 -4.804247 -4.206297 -92.027054 0.474138 28.024225 68.783798 44.778866 -10.368243 5.525483 14.883248 18.455040 
-8.803955 5.672377 -8.821975 90.004082 -5.987897 -90.007416 18.006855 25.447020 7.976055 18.901737 23.562572 7.452664 -16.182575 -3.011185 20.434521 -41.951183 -0.973702 8.170909 39.428402 4.470591 -0.117534 -16.998259 -25.786770 37.311920 -88.331261 44.368626 38.558811 17.528542 11.809549 1.085381 12.067990 3.614074 2.295063 34.376732 -44.741604 -55.516907 -48.273216 43.506603 15.066465 17.511305 -2.363501 -2.824964 -62.964203 2.774029 21.015150 60.648830 12.117768 -2.461073 19.570353 -4.812727 -4.195028 -92.240974 0.379242 27.903236 68.816330 44.783497 -10.345347 5.571344 15.043031 18.349447 
-8.803955 5.672377 -8.770911 90.003708 -5.612523 -90.007042 17.631454 25.447025 7.976035 18.675236 23.570761 7.954442 -16.071205 -2.883353 20.275539 -41.757103 -1.029920 7.990693 38.655846 4.294628 -0.082883 -16.998259 -25.786770 37.311920 -88.619469 44.355442 38.761761 17.528542 11.809549 1.085381 11.183473 4.619044 2.590017 34.282505 -44.540386 -55.509048 -47.033131 42.942394 14.206509 18.139549 -2.347194 -2.807395 -63.204285 2.802722 21.059464 60.450188 12.074089 -2.500347 19.584190 -4.821207 -4.183757 -92.454674 0.283901 27.782604 68.848839 44.788113 -10.322446 5.617542 15.202724 18.243639 
-8.803955 5.672377 -8.719848 90.003319 -5.237194 -90.006668 17.256098 25.447027 7.976012 18.448879 23.580770 8.456065 -15.960124 -2.755118 20.116705 -41.562634 -1.085585 7.810098 37.883934 4.118300 -0.050637 -16.998259 -25.786770 37.311920 -88.907547 44.341545 38.964569 17.528542 11.809549 1.085381 10.293633 5.617934 2.900538 34.188671 -44.339195 -55.501720 -45.818066 42.365879 13.372562 18.767611 -2.331087 -2.789655 -63.444328 2.831596 21.103655 60.251606 12.030274 -2.539458 19.598021 -4.829682 -4.172483 -92.668152 0.188112 27.662336 68.881355 44.792721 -10.299547 5.664079 15.362329 18.137621 
-8.803955 5.672377 -8.668784 90.002953 -4.861910 -90.006325 16.880789 25.447033 7.975993 18.222687 23.592588 8.957503 -15.849324 -2.626483 19.958021 -41.367794 -1.140693 7.629128 37.112732 3.941655 -0.020798 -16.998259 -25.786770 37.311920 -89.195488 44.326908 39.167229 17.528542 11.809549 1.085381 9.398214 6.610214 3.226654 34.095184 -44.137989 -55.494850 -44.627739 41.777752 12.564343 19.395437 -2.315180 -2.771745 -63.684338 2.860652 21.147717 60.053093 11.986329 -2.578405 19.611855 -4.838155 -4.161207 -92.881432 0.091883 27.542439 68.913910 44.797337 -10.276630 5.710957 15.521844 18.031387 
-8.803955 5.672378 -8.617720 90.002571 -4.486680 -90.005936 16.505531 25.447037 7.975971 17.996687 23.606211 9.458724 -15.738819 -2.497448 19.799490 -41.172581 -1.195239 7.447784 36.342297 3.764744 0.006632 -16.998259 -25.786770 37.311920 -89.483223 44.311539 39.369698 17.528542 11.809549 1.085381 8.496960 7.595353 3.568389 34.002048 -43.936790 -55.488464 -43.461819 41.178646 11.781504 20.022993 -2.299476 -2.753669 -63.924320 2.889890 21.191662 59.854649 11.942255 -2.617188 19.625690 -4.846624 -4.149929 -93.094482 -0.004786 27.422907 68.946457 44.801929 -10.253721 5.758176 15.681270 17.924940 
-8.803955 5.672378 -8.566656 90.002205 -4.111517 -90.005585 16.130337 25.447035 7.975947 17.770912 23.621639 9.959699 -15.628600 -2.368017 19.641108 -40.976990 -1.249222 7.266070 35.572681 3.587615 0.031652 -16.998259 -25.786770 37.311920 -89.770828 44.295456 39.572018 17.528542 11.809549 1.085381 7.589624 8.572832 3.925766 33.909248 -43.735573 -55.482533 -42.319958 40.569260 11.023684 20.650248 -2.283979 -2.735431 -64.164284 2.919313 21.235477 59.656288 11.898052 -2.655808 19.639532 -4.855093 -4.138649 -93.307297 -0.101889 27.303738 68.978989 44.806507 -10.230795 5.805740 15.840606 17.818279 
-8.803955 5.672378 -8.515593 90.001823 -3.736427 -90.005219 15.755221 25.447041 7.975927 17.545385 23.638868 10.460393 -15.518671 -2.238190 19.482878 -40.781040 -1.302635 7.083989 34.803955 3.410320 0.054264 -16.998259 -25.786770 37.311920 -90.058235 44.278633 39.774132 17.528542 11.809549 1.085381 6.675967 9.542124 4.298803 33.816822 -43.534397 -55.477100 -41.201698 39.950165 10.290449 21.277166 -2.268691 -2.717035 -64.404182 2.948912 21.279169 59.457993 11.853721 -2.694263 19.653372 -4.863557 -4.127367 -93.519920 -0.199421 27.184950 69.011536 44.811085 -10.207873 5.853645 15.999848 17.711403 
-8.803955 5.672378 -8.464529 90.001457 -3.361417 -90.004860 15.380184 25.447042 7.975906 17.320135 23.657890 10.960781 -15.409037 -2.107970 19.324799 -40.584713 -1.355476 6.901544 34.036160 3.232906 0.074469 -16.998259 -25.786770 37.311920 -90.345459 44.261097 39.976059 17.528542 11.809549 1.085381 5.755762 10.502722 4.687519 33.724731 -43.333221 -55.472137 -39.676903 39.661041 9.130424 21.903700 -2.253613 -2.698485 -64.644058 2.978694 21.322733 59.259773 11.809261 -2.732553 19.667212 -4.872018 -4.116083 -93.732292 -0.297388 27.066526 69.044106 44.815647 -10.184937 5.901896 16.158989 17.604305 
-8.803955 5.672378 -8.413465 90.001083 -2.986491 -90.004501 15.005234 25.447044 7.975884 17.095188 23.678696 11.460829 -15.299696 -1.977358 19.166878 -40.388031 -1.407743 6.718737 33.269356 3.055422 0.092271 -16.998259 -25.786770 37.311920 -90.632492 44.242828 40.177788 17.528542 11.809549 1.085381 4.828787 11.454121 5.091927 33.632961 -43.132038 -55.467609 -38.165199 39.348106 7.984725 22.529816 -2.238749 -2.679782 -64.883904 3.008653 21.366169 59.061638 11.764676 -2.770674 19.681053 -4.880477 -4.104795 -93.944481 -0.395778 26.948494 69.076668 44.820213 -10.162004 5.950496 16.318045 17.496994 
-8.803955 5.672378 -8.362401 90.000725 -2.611669 -90.004150 14.630383 25.447048 7.975864 16.870573 23.701283 11.960508 -15.190654 -1.846357 19.009113 -40.190994 -1.459430 6.535573 32.503605 2.877920 0.107674 -16.998259 -25.786770 37.311920 -90.919327 44.223846 40.379311 17.528542 11.809549 1.085381 3.894839 12.395814 5.512029 33.541531 -42.930889 -55.463547 -36.667801 39.011852 6.854563 23.155483 -2.224101 -2.660933 -65.123680 3.038792 21.409472 58.863583 11.719970 -2.808632 19.694901 -4.888933 -4.093507 -94.156403 -0.494593 26.830833 69.109238 44.824764 -10.139054 5.999438 16.476994 17.389454 
-8.803955 5.672378 -8.311337 90.000366 -2.236945 -90.003792 14.255630 25.447044 7.975839 16.646317 23.725647 12.459792 -15.081902 -1.714967 18.851498 -39.993591 -1.510536 6.352054 31.738955 2.700445 0.120684 -16.998259 -25.786770 37.311920 -91.205940 44.204140 40.580616 17.528542 11.809549 1.085381 2.953716 13.327316 5.947830 33.450413 -42.729733 -55.459927 -35.185818 38.652790 5.741039 23.780659 -2.209670 -2.641939 -65.363426 3.069106 21.452646 58.665581 11.675132 -2.846420 19.708748 -4.897387 -4.082216 -94.368111 -0.593828 26.713547 69.141792 44.829292 -10.116110 6.048731 16.635843 17.281694 
-8.803955 5.672378 -8.260274 89.999992 -1.862335 -90.003441 13.880997 25.447054 7.975821 16.422441 23.751772 12.958642 -14.973450 -1.583192 18.694044 -39.795849 -1.561055 6.168183 30.975462 2.523048 0.131307 -16.998259 -25.786770 37.311920 -91.492340 44.183723 40.781696 17.528542 11.809549 1.085381 2.005239 14.248141 6.399318 33.359623 -42.528599 -55.456760 -33.720230 38.271420 4.645159 24.405308 -2.195459 -2.622806 -65.603127 3.099598 21.495691 58.467682 11.630175 -2.884042 19.722597 -4.905837 -4.070923 -94.579590 -0.693481 26.596655 69.174370 44.833820 -10.093164 6.098372 16.794592 17.173712 
-8.803955 5.672378 -8.209210 89.999641 -1.487846 -90.003098 13.506480 25.447052 7.975797 16.198982 23.779659 13.457038 -14.865295 -1.451031 18.536741 -39.597755 -1.610986 5.983966 30.213196 2.345776 0.139553 -16.998259 -25.786770 37.311920 -91.778473 44.162563 40.982517 17.528542 11.809549 1.085381 1.049235 15.157810 6.866478 33.269161 -42.327507 -55.454052 -32.272007 37.868378 3.567852 25.029390 -2.181469 -2.603535 -65.842773 3.130262 21.538599 58.269848 11.585092 -2.921494 19.736448 -4.914285 -4.059628 -94.790833 -0.793551 26.480141 69.206963 44.838348 -10.070209 6.148364 16.953238 17.065500 
-8.803955 5.672378 -8.158147 89.999290 -1.113490 -90.002762 13.132092 25.447050 7.975774 15.975951 23.809284 13.954943 -14.757439 -1.318488 18.379593 -39.399307 -1.660325 5.799402 29.452179 2.168678 0.145429 -16.998259 -25.786770 37.311920 -92.064392 44.140713 41.183117 17.528542 11.809549 1.085381 0.085546 16.055866 7.349288 33.179001 -42.126415 -55.451759 -30.841938 37.444252 2.509940 25.652878 -2.167704 -2.584133 -66.082367 3.161103 21.581375 58.072105 11.539890 -2.958780 19.750303 -4.922731 -4.048332 -95.001839 -0.894031 26.364012 69.239525 44.842846 -10.047240 6.198708 17.111780 16.957066 
-8.803955 5.672379 -8.107082 89.998947 -0.739266 -90.002411 12.757842 25.447058 7.975755 15.753391 23.840662 14.452333 -14.649881 -1.185565 18.222605 -39.200527 -1.709067 5.614497 28.692488 1.991801 0.148947 -16.998259 -25.786772 37.311924 -92.350067 44.118137 41.383465 17.528542 11.809549 1.085381 -0.885965 16.941845 7.847710 33.089138 -41.925346 -55.449898 -29.430763 36.999687 1.472148 26.275732 -2.154164 -2.564602 -66.321915 3.192117 21.624018 57.874435 11.494564 -2.995894 19.764156 -4.931172 -4.037032 -95.212601 -0.994921 26.248266 69.272118 44.847351 -10.024272 6.249403 17.270216 16.848402 
